<?xml version="1.0" encoding="UTF-8"?>
<svg id="Layer_1" data-name="Layer 1" xmlns="http://www.w3.org/2000/svg" viewBox="0 0 841.89 595.28">
  <defs>
    <style>
      .cls-1 {
        fill: #f9f4ec;
      }

      .cls-2 {
        fill: #60a8d3;
      }

      .cls-3 {
        fill: #fff;
      }
    </style>
  </defs>
  <rect class="cls-3" x=".02" width="841.49" height="710.81"/>
  <path class="cls-1" d="M841.51,485.16v225.65H-18.49V0h792.15v.25c5.65.46,14.82,1.85,24.89,6.24,1.4.6,2.82,1.27,4.25,2.01,3.77,1.93,7.6,4.3,11.39,7.21,4.96,3.8,19.7,15.51,25.13,35.8.3,1.07.55,2.16.79,3.27,7.12,34.28-19.24,59.82-21.32,61.76-16.41,15.38-35.92,18.78-45.13,19.6v.49c7.16.68,17.51,2.61,28.54,8.18,7,3.53,23.87,12.36,32.91,32.05,8.67,18.89,4.78,36.2,3.39,42.03-5.68,23.84-22.87,37-29.97,42.31-14.83,11.09-29.84,14.85-38.05,16.3,4.99-.12,12.36.25,20.8,2.75,2.07.61,12.34,3.82,22.9,11.95,5.21,4.01,21.28,16.76,25.92,39.08,7.12,34.28-19.24,59.81-21.32,61.76-16.41,15.37-35.92,18.77-45.13,19.6v.48c7.16.69,17.51,2.62,28.54,8.19,6.04,3.04,23.04,12.64,32.91,32.04.36.7.8,1.78,1.28,3.09,3.42,9.2,5.12,18.93,5.12,28.72h.01Z"/>
  <path class="cls-2" d="M841.51-7.59v53.1c-.7.2-1.42.39-2.17.54-16.56,3.52-43.65-3.76-77-10.68-2.39-.49-4.82-.99-7.28-1.48h0c-30.13-5.99-64.86-11.08-101.27-7.64-2.5.23-5,.51-7.51.83-18.61,2.35-37.62,7.05-56.62,15.08-13.13,5.55-33.49,15.75-54.28,28.46-52.94,32.36-78.71,59.86-126.68,70.95-1.45.33-2.91.66-4.38.96-.39.08-.78.16-1.17.23-4.23.78-8.39,1.12-12.99,1.27-45.95,1.43-92.67-11.38-92.68-11.38-43.36-13.93-66.65-14.58-78.79-12.68-1.26.2-2.47.42-3.64.65-2.31.46-4.46.99-6.47,1.58-25.62,7.53-30.51,25.43-67.63,42.88-11.72,5.51-73.39,32.95-136.97,8.06-5.14-2.01-9.99-4.25-14.56-6.64-.01,0-.02,0-.02,0V-7.55s.01-.03.02-.04h451.21c37.51-43.58,96.06-37.63,146.31-9.86,5.51,3.05,10.82,6.38,16.03,9.86h201.8c6.28-7.44,11.41-14.03,15.41-19.39-1.96,4.28-5.43,11.32-10.72,19.39h32.06-.01Z"/>
  <path d="M820.44-18.62c-2,4.11-5.51,10.87-10.9,18.62-1.89,2.73-4.01,5.59-6.4,8.5-9.54,11.69-23.04,24.19-41.47,32.75-2.19,1.02-4.45,1.98-6.78,2.88-27.86,10.74-52.87,7.51-65,5.56-16.94-2.74-31.96-8.82-46.17-16.4-18.62-9.94-35.85-22.44-54.16-33.29-12.21-7.24-24.9-13.74-38.81-18.26-42-13.65-79.48-9.65-108,18.26-5.83,5.7-11.29,12.4-16.33,20.16-22.96,35.3-14.22,82.65-24.1,123.07-5.18,21.2-15.48,40.5-38.16,55.15-73.64,47.56-112.99-30.88-158.9-68.77-2.08-1.71-4.18-3.38-6.3-4.99-63.37-48.36-147.44-55.47-222.69-31.33-.01,0-.01.01-.02,0v-5.46s.01-.01.02-.01c66.34-24.23,163.62-13.5,218.65,26.6,3.57,2.6,7.1,5.52,10.62,8.68,40.25,36.07,78.62,103.19,140.37,79.15,30.73-11.95,44.14-33.13,50.77-57.88,10.71-40.01,3.7-89.36,23.56-124.21C424.61,12.48,429.48,5.78,434.76,0c38.11-41.85,97.61-36.14,148.67-9.47C589.03-6.54,594.43-3.34,599.72,0c17.29,10.9,33.43,23.3,51.64,32.49,7.82,3.95,16.03,7.3,24.87,9.69,26.17,7.06,53.68,7.14,78.04-2.35h.01c10.14-3.94,19.72-9.54,28.44-16.98.97-.82,3.68-3.54,6.73-6.6,3.34-3.36,6.48-6.62,9.41-9.76,2.07-2.23,4.04-4.39,5.92-6.49,6.38-7.14,11.6-13.47,15.66-18.62h0Z"/>
</svg>